<svg width="36" height="36" viewBox="0 0 36 36" fill="none" xmlns="http://www.w3.org/2000/svg">
<g id="Emoji">
<path id="Vector" d="M31.7645 1.05884H4.23506C2.48059 1.05884 1.05859 2.48084 1.05859 4.23531V31.7647C1.05859 33.5192 2.48059 34.9412 4.23506 34.9412H31.7645C33.5189 34.9412 34.9409 33.5192 34.9409 31.7647V4.23531C34.9409 2.48084 33.5189 1.05884 31.7645 1.05884Z" fill="#CCD6DD"/>
<path id="Vector_2" d="M31.7647 0H4.23529C1.89635 0 0 1.89635 0 4.23529V31.7647C0 34.1036 1.89635 36 4.23529 36H31.7647C34.1036 36 36 34.1036 36 31.7647V4.23529C36 1.89635 34.1036 0 31.7647 0ZM31.7647 2.11765C32.9326 2.11765 33.8824 3.06741 33.8824 4.23529V8.47059H27.5294V2.11765H31.7647ZM27.5294 19.0588H33.8824V25.4118H27.5294V19.0588ZM27.5294 16.9412V10.5882H33.8824V16.9412H27.5294ZM25.4118 2.11765V8.47059H19.0588V2.11765H25.4118ZM19.0588 10.5882H25.4118V16.9412H19.0588V10.5882ZM19.0588 19.0588H25.4118V25.4118H19.0588V19.0588ZM16.9412 2.11765V8.47059H10.5882V2.11765H16.9412ZM10.5882 10.5882H16.9412V16.9412H10.5882V10.5882ZM10.5882 19.0588H16.9412V25.4118H10.5882V19.0588ZM2.11765 4.23529C2.11765 3.06741 3.06741 2.11765 4.23529 2.11765H8.47059V8.47059H2.11765V4.23529ZM2.11765 10.5882H8.47059V16.9412H2.11765V10.5882ZM2.11765 19.0588H8.47059V25.4118H2.11765V19.0588ZM4.23529 33.8824C3.06741 33.8824 2.11765 32.9326 2.11765 31.7647V27.5294H8.47059V33.8824H4.23529ZM10.5882 33.8824V27.5294H16.9412V33.8824H10.5882ZM19.0588 33.8824V27.5294H25.4118V33.8824H19.0588ZM31.7647 33.8824H27.5294V27.5294H33.8824V31.7647C33.8824 32.9326 32.9326 33.8824 31.7647 33.8824Z" fill="#E1E8ED"/>
<path id="Vector_3" d="M4.23291 33.8824C3.89408 33.8824 3.54996 33.8019 3.23126 33.6293C2.20102 33.0755 1.81667 31.7912 2.37044 30.761L9.7822 16.9963C10.0988 16.4065 10.6769 16.002 11.3387 15.9046C12.0015 15.8072 12.6707 16.0295 13.144 16.5028L19.5774 22.9363L29.8882 3.25272C30.4303 2.21719 31.7104 1.8159 32.746 2.36013C33.7826 2.90225 34.1817 4.18237 33.6396 5.21896L21.9926 27.4543C21.6802 28.0514 21.1021 28.4633 20.4361 28.566C19.7722 28.6624 19.0956 28.4464 18.6191 27.9699L12.1603 21.5121L6.09961 32.7685C5.71738 33.479 4.98679 33.8824 4.23291 33.8824Z" fill="#FF7E25"/>
</g>
</svg>
