<svg width="36" height="36" viewBox="0 0 36 36" fill="none" xmlns="http://www.w3.org/2000/svg">
<g id="Emoji">
<path id="Vector" d="M36 18C36 27.941 27.941 36 18 36C8.06 36 0 27.941 0 18C0 8.06 8.06 0 18 0C27.941 0 36 8.06 36 18Z" fill="#FFCC4D"/>
<path id="Vector_2" d="M7 21.2629C7 25.2269 11.596 30.2629 18 30.2629C24.404 30.2629 29 25.2629 29 21.2629C29 21.2629 18.667 24.0189 7 21.2629Z" fill="#664500"/>
<path id="Vector_3" d="M12 23.0031V29.9641C12 32.9641 14 35.9641 18 35.9641C22 35.9641 24 32.9641 24 29.9641V23.0441C17.709 24.3361 12 23.0031 12 23.0031Z" fill="#5D9040"/>
<path id="Vector_4" d="M12.2832 12.33C11.5272 12.038 10.8122 11.762 10.8122 11.362C10.8122 10.703 11.6962 10.669 11.8732 10.669C12.4982 10.669 12.8092 10.903 13.0832 11.11C13.2932 11.269 13.5112 11.433 13.8142 11.433C14.3782 11.433 14.6352 11.036 14.6352 10.667C14.6352 9.93096 13.7332 9.41096 12.7772 9.19296V8.79996C12.7772 8.28196 12.3562 7.86096 11.8382 7.86096C11.3202 7.86096 10.8992 8.28196 10.8992 8.79996V9.22596C9.75519 9.55896 9.05419 10.4 9.05419 11.461C9.05419 12.772 10.3472 13.31 11.4882 13.784C12.3052 14.124 13.0772 14.445 13.0772 14.946C13.0772 15.312 12.6172 15.708 11.8742 15.708C11.1242 15.708 10.6942 15.408 10.3142 15.144C10.0522 14.961 9.80419 14.788 9.50819 14.788C9.07819 14.788 8.74219 15.15 8.74219 15.612C8.74219 16.291 9.67319 16.968 10.8992 17.206V17.676C10.8992 18.194 11.3202 18.614 11.8382 18.614C12.3562 18.614 12.7772 18.193 12.7772 17.676L12.7722 17.178C14.0682 16.863 14.8342 15.956 14.8342 14.719C14.8352 13.315 13.4202 12.769 12.2832 12.33ZM26.6932 14.736C26.6932 13.332 25.2782 12.786 24.1412 12.347C23.3852 12.055 22.6712 11.779 22.6712 11.379C22.6712 10.72 23.5552 10.686 23.7322 10.686C24.3572 10.686 24.6672 10.92 24.9422 11.127C25.1532 11.286 25.3702 11.45 25.6722 11.45C26.2372 11.45 26.4942 11.053 26.4942 10.684C26.4942 9.94696 25.5922 9.42796 24.6362 9.20996V8.81796C24.6362 8.29996 24.2142 7.87896 23.6972 7.87896C23.1792 7.87896 22.7572 8.29996 22.7572 8.81796V9.24396C21.6142 9.57696 20.9122 10.418 20.9122 11.479C20.9122 12.79 22.2052 13.328 23.3462 13.802C24.1632 14.142 24.9352 14.463 24.9352 14.964C24.9352 15.33 24.4762 15.726 23.7332 15.726C22.9832 15.726 22.5532 15.426 22.1742 15.162C21.9112 14.979 21.6632 14.806 21.3682 14.806C20.9372 14.806 20.6012 15.168 20.6012 15.63C20.6012 16.309 21.5322 16.986 22.7572 17.224V17.694C22.7572 18.211 23.1802 18.632 23.6982 18.632C24.2162 18.632 24.6362 18.211 24.6362 17.694L24.6332 17.196C25.9282 16.879 26.6932 15.973 26.6932 14.736Z" fill="#664500"/>
<path id="Vector_5" d="M20.9693 31.069C20.9693 29.701 19.5903 29.168 18.4823 28.74C17.7453 28.456 17.0483 28.186 17.0483 27.797C17.0483 27.154 17.9093 27.122 18.0823 27.122C18.6913 27.122 18.9943 27.351 19.2623 27.552C19.4673 27.707 19.6803 27.867 19.9753 27.867C20.5253 27.867 20.7763 27.479 20.7763 27.12C20.7763 26.403 19.8973 25.896 18.9643 25.683V25.3C18.9643 24.795 18.5533 24.384 18.0483 24.384C17.5433 24.384 17.1323 24.795 17.1323 25.3V25.715C16.0173 26.039 15.3333 26.86 15.3333 27.894C15.3333 29.172 16.5943 29.697 17.7063 30.159C18.5033 30.49 19.2553 30.803 19.2553 31.291C19.2553 31.648 18.8073 32.034 18.0823 32.034C17.3513 32.034 16.9323 31.742 16.5623 31.483C16.3073 31.305 16.0653 31.136 15.7773 31.136C15.3583 31.136 15.0293 31.49 15.0293 31.94C15.0293 32.603 15.9363 33.262 17.1313 33.494V33.953C17.1313 34.457 17.5423 34.867 18.0483 34.867C18.5533 34.867 18.9633 34.457 18.9633 33.953L18.9603 33.467C20.2233 33.158 20.9693 32.274 20.9693 31.069Z" fill="white"/>
</g>
</svg>
