<svg width="36" height="36" viewBox="0 0 36 36" fill="none" xmlns="http://www.w3.org/2000/svg">
<g id="Emoji">
<path id="Vector" d="M18 0C8.06 0 0 8.06 0 18C0 24.051 2.996 29.392 7.574 32.655C7.678 26.217 5.337 19 1.404 19C0.94 19 0.564 19.066 0.251 19.183C0.554 18.426 1.211 18 2.44 18C6.71 18 9.106 26.506 8.532 33.288C11.286 34.997 14.522 36 18 36C21.479 36 24.716 34.996 27.47 33.287C26.893 26.48 29.288 18 33.561 18C34.794 18 35.453 18.426 35.753 19.183C35.439 19.066 35.062 19 34.596 19C30.658 19 28.318 26.199 28.426 32.655C33.005 29.392 36 24.051 36 18C36 8.06 27.941 0 18 0Z" fill="#FFCC4D"/>
<path id="Vector_2" d="M18 0C8.06 0 0 8.06 0 18C0 19.192 0.123 20.356 0.344 21.484C0.578 20.621 0.944 19.793 1.402 19C0.939 19 0.564 19.066 0.252 19.183C0.516 18.524 1.074 18.135 2.02 18.041C5.012 13.862 11.037 11 18 11C24.964 11 30.988 13.861 33.98 18.04C34.93 18.134 35.49 18.522 35.752 19.183C35.44 19.066 35.063 19 34.599 19C35.057 19.793 35.422 20.621 35.657 21.484C35.878 20.356 36 19.192 36 18C36 8.06 27.941 0 18 0Z" fill="#BDDDF4"/>
<path id="Vector_3" d="M7.34729 11.91C6.40129 15.086 7.45428 18.203 9.70028 18.872C11.9463 19.542 14.5343 17.51 15.4793 14.334C16.4253 11.159 15.3733 8.04104 13.1283 7.37204C10.8823 6.70304 8.29429 8.73504 7.34729 11.91ZM28.6523 11.91C29.5983 15.086 28.5453 18.203 26.3003 18.872C24.0543 19.542 21.4663 17.51 20.5213 14.334C19.5753 11.159 20.6283 8.04104 22.8723 7.37204C25.1173 6.70304 27.7053 8.73504 28.6523 11.91Z" fill="#F5F8FA"/>
<path id="Vector_4" d="M18 18C15.243 18 13 20.243 13 23V29C13 31.757 15.243 34 18 34C20.757 34 23 31.757 23 29V23C23 20.243 20.757 18 18 18Z" fill="#664500"/>
<path id="Vector_5" d="M1.40416 19C0.94016 19 0.56416 19.066 0.25116 19.183C0.32316 19.004 0.41816 18.847 0.53216 18.707C-1.32984 20.998 2.84916 28.54 0.81816 36H7.27816C8.46816 29.04 6.04316 19 1.40416 19ZM35.7532 19.183C35.4392 19.066 35.0622 19 34.5962 19C29.9552 19 27.5312 29.002 28.7232 36H35.1832C33.2772 28.955 36.8392 21.911 35.7532 19.183Z" fill="#FCAB40"/>
</g>
</svg>
