<svg width="140" height="140" viewBox="0 0 140 140" fill="none" xmlns="http://www.w3.org/2000/svg">
<path d="M55.1719 61.0625C55.1719 60.1219 55.9344 59.3594 56.875 59.3594H80.0133L70.9988 50.3449C70.3337 49.6798 70.3337 48.6014 70.9988 47.9363C71.6639 47.2712 72.7423 47.2712 73.4074 47.9363L85.3293 59.8582C85.4926 60.0215 85.6158 60.2097 85.6989 60.4106C85.7803 60.6068 85.826 60.8216 85.8281 61.0468C85.8241 61.4774 85.6579 61.9382 85.3293 62.2668L73.4074 74.1887C72.7423 74.8538 71.6639 74.8538 70.9988 74.1887C70.3337 73.5236 70.3337 72.4452 70.9988 71.7801L80.0133 62.7656H56.875C55.9344 62.7656 55.1719 62.0031 55.1719 61.0625Z" fill="#FF7E25"/>
<path d="M90.9377 28.7031H50.0625C32.1909 28.7031 17.7031 43.1909 17.7031 61.0625C17.7031 78.9341 32.1909 93.4219 50.0625 93.4219H90.9377C108.809 93.4219 123.297 78.9341 123.297 61.0625C123.297 43.1909 108.809 28.7031 90.9377 28.7031Z" stroke="#FF7E25" stroke-width="3"/>
</svg>
