<svg width="164" height="50" viewBox="0 0 164 50" fill="none" xmlns="http://www.w3.org/2000/svg">
<path d="M3.4656 46.6451C2.71403 46.6451 2.07843 46.4863 1.55883 46.1688C1.04386 45.8466 0.65415 45.3893 0.389706 44.797C0.129902 44.2 0 43.4939 0 42.6789C0 41.8307 0.150779 41.1057 0.452338 40.5039C0.753896 39.8973 1.1784 39.4329 1.72584 39.1107C2.27329 38.7885 2.91584 38.6274 3.6535 38.6274C4.01537 38.6274 4.35172 38.6605 4.66256 38.7269C4.9734 38.7932 5.25408 38.8856 5.5046 39.0041L5.31671 39.6367C5.0569 39.5182 4.78086 39.4282 4.48858 39.3666C4.1963 39.305 3.91562 39.2742 3.64654 39.2742C3.02486 39.2742 2.49598 39.414 2.05988 39.6936C1.62842 39.9684 1.2967 40.3617 1.06473 40.8735C0.837405 41.3805 0.72374 41.9799 0.72374 42.6718C0.72374 43.321 0.821167 43.8967 1.01602 44.399C1.21087 44.8965 1.51011 45.2898 1.91374 45.5789C2.31736 45.8632 2.83465 46.0054 3.4656 46.0054C3.83211 46.0054 4.18007 45.9675 4.50946 45.8916C4.84349 45.8158 5.14737 45.7187 5.42109 45.6002V46.2541C5.17521 46.3679 4.88989 46.4603 4.56513 46.5313C4.24502 46.6072 3.87851 46.6451 3.4656 46.6451Z" fill="#B0B7C7"/>
<path d="M13.4866 42.6291C13.4866 43.2262 13.4147 43.7711 13.2709 44.2639C13.1271 44.752 12.9137 45.1737 12.6307 45.5291C12.3477 45.8845 11.9951 46.1594 11.5729 46.3537C11.1553 46.5479 10.6682 46.6451 10.1115 46.6451C9.5826 46.6451 9.11171 46.5503 8.6988 46.3608C8.2859 46.1665 7.93563 45.8916 7.64799 45.5362C7.36499 45.1809 7.14926 44.7591 7.0008 44.271C6.85234 43.7782 6.77811 43.2309 6.77811 42.6291C6.77811 41.7999 6.91265 41.0867 7.18173 40.4896C7.45545 39.8878 7.84516 39.4282 8.35085 39.1107C8.86118 38.7885 9.47126 38.6274 10.1811 38.6274C10.9141 38.6274 11.5242 38.798 12.0113 39.1391C12.5031 39.4756 12.8719 39.9447 13.1178 40.5465C13.3637 41.1483 13.4866 41.8425 13.4866 42.6291ZM7.50185 42.6291C7.50185 43.3067 7.59695 43.8991 7.78717 44.4061C7.97738 44.9131 8.26502 45.3088 8.65009 45.5931C9.0398 45.8774 9.53157 46.0196 10.1254 46.0196C10.7332 46.0196 11.2319 45.8774 11.6216 45.5931C12.0113 45.3088 12.2989 44.9107 12.4845 44.399C12.6701 43.8872 12.7629 43.2973 12.7629 42.6291C12.7629 41.9799 12.6747 41.4018 12.4984 40.8948C12.3221 40.3878 12.0438 39.9897 11.6634 39.7007C11.2829 39.4069 10.7865 39.26 10.1741 39.26C9.29728 39.26 8.63153 39.5585 8.17688 40.1556C7.72686 40.7526 7.50185 41.5771 7.50185 42.6291Z" fill="#B0B7C7"/>
<path d="M18.9077 38.6274C19.7567 38.6274 20.4086 38.8548 20.8632 39.3097C21.3179 39.7646 21.5452 40.4778 21.5452 41.4492V46.5029H20.8493V41.4919C20.8493 40.7242 20.6776 40.1603 20.3343 39.8002C19.991 39.44 19.4923 39.26 18.8381 39.26C18.0077 39.26 17.3721 39.5088 16.9314 40.0063C16.4953 40.4991 16.2772 41.2454 16.2772 42.2453V46.5029H15.5743V38.7766H16.145L16.2494 40.184H16.2911C16.4257 39.8949 16.6089 39.6343 16.8409 39.4021C17.0775 39.1652 17.3675 38.978 17.7108 38.8406C18.0541 38.6985 18.4531 38.6274 18.9077 38.6274Z" fill="#B0B7C7"/>
<path d="M28.7269 44.4772C28.7269 44.9368 28.6133 45.3301 28.3859 45.6571C28.1632 45.9793 27.8362 46.2257 27.4047 46.3963C26.9732 46.5622 26.442 46.6451 25.8111 46.6451C25.2868 46.6451 24.8183 46.5977 24.4054 46.5029C23.9925 46.4081 23.6468 46.2921 23.3685 46.1546V45.4438C23.7164 45.6192 24.1015 45.7613 24.5237 45.8703C24.9458 45.9793 25.3796 46.0338 25.825 46.0338C26.6044 46.0338 27.1658 45.8987 27.5091 45.6286C27.8524 45.3585 28.0241 44.9889 28.0241 44.5198C28.0241 44.2118 27.9382 43.9583 27.7666 43.7593C27.5996 43.5555 27.3583 43.3802 27.0428 43.2333C26.7274 43.0864 26.3469 42.9371 25.9016 42.7855C25.4376 42.6244 25.0247 42.4656 24.6628 42.3093C24.3056 42.1481 24.0249 41.9373 23.8208 41.6767C23.6167 41.4113 23.5146 41.0512 23.5146 40.5963C23.5146 39.9755 23.7582 39.4922 24.2453 39.1463C24.7324 38.8003 25.3866 38.6274 26.2078 38.6274C26.6624 38.6274 27.0846 38.6724 27.4743 38.7624C27.8686 38.8477 28.2259 38.9591 28.546 39.0965L28.2955 39.7078C28.0078 39.5704 27.6761 39.459 27.3003 39.3737C26.9245 39.2884 26.5487 39.2458 26.173 39.2458C25.5559 39.2458 25.0734 39.3571 24.7255 39.5798C24.3775 39.8025 24.2036 40.1295 24.2036 40.5607C24.2036 40.8924 24.2871 41.153 24.4541 41.3426C24.6211 41.5274 24.86 41.6838 25.1709 41.8117C25.4817 41.9349 25.8505 42.0723 26.2773 42.224C26.7181 42.3803 27.124 42.5438 27.4952 42.7144C27.871 42.885 28.1702 43.1053 28.3929 43.3754C28.6156 43.6455 28.7269 44.0128 28.7269 44.4772Z" fill="#B0B7C7"/>
<path d="M36.5141 38.7766V46.5029H35.9435L35.8391 45.1098H35.7973C35.6674 45.3941 35.4842 45.6523 35.2476 45.8845C35.0109 46.1167 34.721 46.3015 34.3777 46.4389C34.0344 46.5764 33.6354 46.6451 33.1807 46.6451C32.6008 46.6451 32.1137 46.5432 31.7193 46.3394C31.3296 46.1309 31.035 45.8182 30.8355 45.4012C30.636 44.9842 30.5363 44.463 30.5363 43.8375V38.7766H31.2391V43.7664C31.2391 44.5388 31.4085 45.1074 31.7472 45.4723C32.0905 45.8371 32.5915 46.0196 33.2503 46.0196C33.807 46.0196 34.2733 45.9106 34.6491 45.6926C35.0295 45.4746 35.3171 45.1453 35.512 44.7046C35.7115 44.2592 35.8112 43.7048 35.8112 43.0414V38.7766H36.5141Z" fill="#B0B7C7"/>
<path d="M39.7709 46.5029H39.0611V35.443H39.7709V46.5029Z" fill="#B0B7C7"/>
<path d="M44.3291 46.0267C44.5471 46.0267 44.749 46.0101 44.9345 45.9769C45.1248 45.9438 45.2918 45.9011 45.4356 45.849V46.4461C45.2871 46.4982 45.1132 46.5432 44.9137 46.5811C44.7142 46.6238 44.4938 46.6451 44.2526 46.6451C43.8257 46.6451 43.4708 46.5645 43.1878 46.4034C42.9048 46.2376 42.6914 45.9888 42.5476 45.6571C42.4038 45.3206 42.3319 44.8942 42.3319 44.3777V39.3737H41.2045V38.9472L42.3249 38.7269L42.5685 36.9073H43.0347V38.7766H45.3938V39.3737H43.0347V44.335C43.0347 44.8894 43.1345 45.3112 43.334 45.6002C43.5381 45.8845 43.8698 46.0267 44.3291 46.0267Z" fill="#B0B7C7"/>
<path d="M47.7599 38.7766V46.5029H47.057V38.7766H47.7599ZM47.4189 35.9193C47.5952 35.9193 47.7251 35.9738 47.8086 36.0827C47.8921 36.187 47.9339 36.3292 47.9339 36.5092C47.9339 36.6893 47.8921 36.8314 47.8086 36.9357C47.7251 37.0399 47.5952 37.0921 47.4189 37.0921C47.2519 37.0921 47.1266 37.0399 47.0431 36.9357C46.9596 36.8314 46.9179 36.6893 46.9179 36.5092C46.9179 36.3292 46.9596 36.187 47.0431 36.0827C47.1266 35.9738 47.2519 35.9193 47.4189 35.9193Z" fill="#B0B7C7"/>
<path d="M53.6194 38.6274C54.4684 38.6274 55.1203 38.8548 55.5749 39.3097C56.0296 39.7646 56.2569 40.4778 56.2569 41.4492V46.5029H55.561V41.4919C55.561 40.7242 55.3893 40.1603 55.046 39.8002C54.7027 39.44 54.204 39.26 53.5498 39.26C52.7194 39.26 52.0838 39.5088 51.6431 40.0063C51.207 40.4991 50.9889 41.2454 50.9889 42.2453V46.5029H50.286V38.7766H50.8567L50.9611 40.184H51.0028C51.1374 39.8949 51.3206 39.6343 51.5526 39.4021C51.7892 39.1652 52.0792 38.978 52.4225 38.8406C52.7658 38.6985 53.1648 38.6274 53.6194 38.6274Z" fill="#B0B7C7"/>
<path d="M60.7107 50C59.7596 50 59.0196 49.8128 58.4908 49.4385C57.9665 49.0641 57.7044 48.5405 57.7044 47.8676C57.7044 47.3464 57.8644 46.8962 58.1846 46.5171C58.5047 46.1428 58.9384 45.9177 59.4859 45.8419C59.2678 45.7376 59.0892 45.5955 58.9501 45.4154C58.8155 45.2353 58.7482 45.0268 58.7482 44.7899C58.7482 44.5246 58.8294 44.2781 58.9918 44.0507C59.1542 43.8185 59.3977 43.6053 59.7225 43.411C59.2864 43.2499 58.9431 42.9774 58.6926 42.5936C58.442 42.205 58.3168 41.7383 58.3168 41.1933C58.3168 40.6721 58.4258 40.2195 58.6439 39.8357C58.8619 39.4519 59.1704 39.1557 59.5694 38.9472C59.973 38.734 60.4486 38.6274 60.996 38.6274C61.163 38.6274 61.3138 38.6321 61.4483 38.6416C61.5875 38.6511 61.7151 38.6677 61.8311 38.6913C61.9471 38.7103 62.0515 38.7364 62.1442 38.7695H64.5869V39.2813L63.028 39.3879C63.2322 39.6391 63.3853 39.9115 63.4873 40.2053C63.5894 40.4944 63.6404 40.8 63.6404 41.1222C63.6404 41.8899 63.4038 42.4988 62.9306 42.949C62.4574 43.3991 61.7986 43.6242 60.9543 43.6242C60.7223 43.6242 60.495 43.6029 60.2723 43.5603C59.9893 43.7308 59.7735 43.9038 59.6251 44.0791C59.4766 44.2497 59.4024 44.463 59.4024 44.7188C59.4024 44.8799 59.4488 45.0126 59.5416 45.1169C59.6344 45.2164 59.7689 45.2946 59.9452 45.3514C60.1215 45.4036 60.3372 45.4296 60.5924 45.4296H61.9216C62.7427 45.4296 63.3714 45.6002 63.8075 45.9414C64.2436 46.2826 64.4616 46.7849 64.4616 47.4483C64.4616 48.2586 64.1345 48.8864 63.4804 49.3319C62.8309 49.7773 61.9076 50 60.7107 50ZM60.7594 49.3958C61.4228 49.3958 61.9749 49.3224 62.4157 49.1755C62.861 49.0286 63.1951 48.8106 63.4178 48.5216C63.6404 48.2372 63.7518 47.8842 63.7518 47.4625C63.7518 47.1166 63.6706 46.8488 63.5082 46.6593C63.3458 46.4697 63.1162 46.3394 62.8193 46.2684C62.5224 46.1925 62.1721 46.1546 61.7685 46.1546H60.5019C60.0983 46.1546 59.7387 46.2115 59.4233 46.3252C59.1078 46.4342 58.8619 46.6095 58.6856 46.8512C58.514 47.0929 58.4281 47.4151 58.4281 47.8179C58.4281 48.3344 58.6253 48.7253 59.0196 48.9907C59.4186 49.2608 59.9985 49.3958 60.7594 49.3958ZM60.9821 43.0485C61.6084 43.0485 62.0886 42.8874 62.4226 42.5651C62.7566 42.2429 62.9237 41.7762 62.9237 41.1649C62.9237 40.511 62.752 40.0205 62.4087 39.6936C62.0654 39.3666 61.5852 39.2031 60.9682 39.2031C60.3697 39.2031 59.8988 39.3784 59.5555 39.7291C59.2168 40.075 59.0475 40.5631 59.0475 41.1933C59.0475 41.7809 59.2099 42.2382 59.5346 42.5651C59.8594 42.8874 60.3419 43.0485 60.9821 43.0485Z" fill="#B0B7C7"/>
<path d="M85.4824 11.5668H87.4526L93.9006 26.7912L100.259 11.5668H102.229L93.9006 31.0127L85.4824 11.5668Z" fill="url(#paint0_linear_48_513)"/>
<path d="M104.303 11.5668H106.094V29.8899H104.303V11.5668ZM106.318 6.67168C106.02 6.97108 105.646 7.12078 105.199 7.12078C104.751 7.12078 104.363 6.97108 104.034 6.67168C103.736 6.34234 103.587 5.93816 103.587 5.45912C103.587 4.98009 103.736 4.59087 104.034 4.29147C104.363 3.96214 104.751 3.79747 105.199 3.79747C105.646 3.79747 106.02 3.96214 106.318 4.29147C106.646 4.59087 106.811 4.98009 106.811 5.45912C106.811 5.93816 106.646 6.34234 106.318 6.67168Z" fill="url(#paint1_linear_48_513)"/>
<path d="M119.957 14.1267L118.435 14.935C117.838 13.5578 116.778 12.8692 115.255 12.8692C114.3 12.8692 113.539 13.1686 112.972 13.7674C112.434 14.3662 112.166 15.0398 112.166 15.7883C112.166 16.3871 112.36 16.9111 112.748 17.3602C113.136 17.7793 113.494 18.0637 113.823 18.2134C114.151 18.3631 114.793 18.6326 115.748 19.0218C115.838 19.0517 116.076 19.1416 116.464 19.2913C116.882 19.441 117.151 19.5458 117.27 19.6056C117.42 19.6655 117.658 19.7853 117.987 19.9649C118.345 20.1146 118.614 20.2643 118.793 20.414C118.972 20.5338 119.181 20.6984 119.42 20.908C119.688 21.1176 119.912 21.3421 120.091 21.5817C120.718 22.3601 121.032 23.3481 121.032 24.5457C121.032 26.4918 120.435 27.9588 119.241 28.9468C118.076 29.9049 116.688 30.3839 115.076 30.3839C113.524 30.3839 112.181 29.9498 111.046 29.0815C109.912 28.2133 109.151 27.0307 108.763 25.5337L110.509 24.9948C110.808 26.1624 111.375 27.0756 112.211 27.7343C113.076 28.363 114.032 28.6774 115.076 28.6774C116.241 28.6774 117.211 28.3031 117.987 27.5546C118.763 26.7762 119.151 25.8032 119.151 24.6355C119.151 23.6774 118.882 22.9439 118.345 22.4349C117.808 21.926 116.912 21.417 115.658 20.908C115.539 20.8481 115.315 20.7583 114.987 20.6386C114.658 20.4889 114.435 20.399 114.315 20.3691C114.226 20.3092 114.032 20.2194 113.733 20.0996C113.464 19.9799 113.27 19.8901 113.151 19.8302C113.061 19.7703 112.897 19.6805 112.658 19.5607C112.449 19.441 112.285 19.3511 112.166 19.2913C112.076 19.2014 111.957 19.0967 111.808 18.9769C111.658 18.8571 111.524 18.7374 111.405 18.6176C111.285 18.4979 111.181 18.3781 111.091 18.2583C110.554 17.5398 110.285 16.7464 110.285 15.8781C110.285 14.5009 110.748 13.3782 111.673 12.5099C112.599 11.6117 113.763 11.1626 115.166 11.1626C117.524 11.1626 119.121 12.1506 119.957 14.1267Z" fill="url(#paint2_linear_48_513)"/>
<path d="M124.247 11.5668H126.038V29.8899H124.247V11.5668ZM126.262 6.67168C125.963 6.97108 125.59 7.12078 125.142 7.12078C124.694 7.12078 124.306 6.97108 123.978 6.67168C123.679 6.34234 123.53 5.93816 123.53 5.45912C123.53 4.98009 123.679 4.59087 123.978 4.29147C124.306 3.96214 124.694 3.79747 125.142 3.79747C125.59 3.79747 125.963 3.96214 126.262 4.29147C126.59 4.59087 126.754 4.98009 126.754 5.45912C126.754 5.93816 126.59 6.34234 126.262 6.67168Z" fill="url(#paint3_linear_48_513)"/>
<path d="M131.497 13.947C133.348 12.0908 135.632 11.1626 138.348 11.1626C141.065 11.1626 143.334 12.0908 145.155 13.947C147.005 15.7733 147.931 18.0488 147.931 20.7733C147.931 23.4978 147.005 25.7882 145.155 27.6444C143.334 29.4708 141.065 30.3839 138.348 30.3839C135.632 30.3839 133.348 29.4708 131.497 27.6444C129.676 25.7882 128.766 23.4978 128.766 20.7733C128.766 18.0488 129.676 15.7733 131.497 13.947ZM132.841 26.387C134.333 27.9139 136.169 28.6774 138.348 28.6774C140.527 28.6774 142.348 27.9139 143.811 26.387C145.304 24.8601 146.05 22.9888 146.05 20.7733C146.05 18.5577 145.304 16.6865 143.811 15.1596C142.348 13.6327 140.527 12.8692 138.348 12.8692C136.169 12.8692 134.333 13.6327 132.841 15.1596C131.378 16.6865 130.647 18.5577 130.647 20.7733C130.647 22.9888 131.378 24.8601 132.841 26.387Z" fill="url(#paint4_linear_48_513)"/>
<path d="M150.656 29.8899V11.5668H152.447V14.441C153.671 12.2554 155.537 11.1626 158.044 11.1626C160.313 11.1626 162 12.0159 163.104 13.7225C163.701 14.6806 164 16.2224 164 18.3482V29.8899H162.209V18.3482C162.209 16.6416 161.97 15.4141 161.492 14.6656C160.776 13.468 159.582 12.8692 157.91 12.8692C155.88 12.8692 154.388 13.7225 153.432 15.429C152.776 16.5967 152.447 18.2434 152.447 20.3691V29.8899H150.656Z" fill="url(#paint5_linear_48_513)"/>
<path fill-rule="evenodd" clip-rule="evenodd" d="M0 0.190489H6.26724C8.62491 0.190489 10.6841 0.3993 12.4449 0.816922C14.2057 1.20471 15.8472 1.96538 17.3692 3.09893C19.1897 4.47112 20.5923 6.20127 21.5772 8.28938C22.5919 10.3775 23.0992 12.6595 23.0992 15.1354C23.0992 20.3557 21.0997 24.3678 17.1006 27.1719C15.489 28.3054 13.8476 29.0661 12.1763 29.4539C10.5051 29.8417 8.50553 30.0356 6.1777 30.0356H0V0.190489ZM4.56613 4.48603V25.74H6.53583C9.93804 25.74 12.5792 25.039 14.4594 23.637C17.1752 21.5787 18.5331 18.7448 18.5331 15.1354C18.5331 13.2859 18.1451 11.6005 17.3692 10.0792C16.6231 8.55785 15.6681 7.37956 14.5042 6.54431C12.5942 5.17213 9.93804 4.48603 6.53583 4.48603H4.56613ZM40.4783 23.0553L44.1492 25.1136C43.4627 26.4261 42.642 27.5 41.687 28.3352C39.9561 29.8566 37.8521 30.6172 35.375 30.6172C32.8084 30.6172 30.6 29.7671 28.7497 28.0668C26.8993 26.3665 25.9742 23.9204 25.9742 20.7286C25.9742 17.7455 26.8098 15.3293 28.4811 13.4798C30.1523 11.6304 32.3757 10.7056 35.1512 10.7056C38.255 10.7056 40.6126 11.8541 42.2242 14.151C43.3881 15.8215 43.9701 18.1035 43.9701 20.997V21.6682H30.4508C30.5105 23.279 31.0476 24.517 32.0623 25.3821C33.1069 26.2471 34.2708 26.6797 35.5541 26.6797C36.718 26.6797 37.7178 26.3366 38.5534 25.6505C39.389 25.0241 40.0307 24.159 40.4783 23.0553ZM30.7641 18.0886H39.4935C39.2547 17.0445 38.7325 16.2093 37.9267 15.5829C37.1507 14.9564 36.2256 14.6432 35.1512 14.6432C34.0768 14.6432 33.1516 14.9564 32.3757 15.5829C31.5998 16.2093 31.0626 17.0445 30.7641 18.0886ZM65.0248 25.1136L61.354 23.0553C60.9063 24.159 60.2647 25.0241 59.429 25.6505C58.5934 26.3366 57.5936 26.6797 56.4297 26.6797C55.1464 26.6797 53.9825 26.2471 52.938 25.3821C51.9233 24.517 51.3861 23.279 51.3264 21.6682H64.8457V20.997C64.8457 18.1035 64.2638 15.8215 63.0998 14.151C61.4883 11.8541 59.1306 10.7056 56.0268 10.7056C53.2513 10.7056 51.028 11.6304 49.3567 13.4798C47.6854 15.3293 46.8498 17.7455 46.8498 20.7286C46.8498 23.9204 47.775 26.3665 49.6253 28.0668C51.4756 29.7671 53.6841 30.6172 56.2507 30.6172C58.7277 30.6172 60.8317 29.8566 62.5627 28.3352C63.5177 27.5 64.3384 26.4261 65.0248 25.1136ZM60.3691 18.0886H51.6398C51.9382 17.0445 52.4754 16.2093 53.2513 15.5829C54.0273 14.9564 54.9524 14.6432 56.0268 14.6432C57.1012 14.6432 58.0264 14.9564 58.8023 15.5829C59.6081 16.2093 60.1304 17.0445 60.3691 18.0886ZM73.0973 27.843V47.025L68.7103 49.5567V11.1978H73.0973V13.2561C74.5298 11.5558 76.3951 10.7056 78.6931 10.7056C80.6843 10.7056 82.433 11.2532 83.9393 12.3485L87.8455 21.3411C87.6876 23.9735 86.7707 26.1408 85.0946 27.843C83.2443 29.6925 81.1254 30.6172 78.7379 30.6172C76.4996 30.6172 74.6194 29.6925 73.0973 27.843ZM78.1559 14.6432C76.6637 14.6432 75.3953 15.1801 74.3508 16.254C73.3361 17.2981 72.8288 18.7896 72.8288 20.7286C72.8288 22.6079 73.3361 24.0695 74.3508 25.1136C75.3953 26.1576 76.6637 26.6797 78.1559 26.6797C79.7078 26.6797 80.9612 26.098 81.9162 24.9346C82.9011 23.7712 83.3935 22.3543 83.3935 20.6838C83.3935 18.9835 82.9011 17.5516 81.9162 16.3883C80.9612 15.2249 79.7078 14.6432 78.1559 14.6432Z" fill="#002060"/>
<defs>
<linearGradient id="paint0_linear_48_513" x1="84.8616" y1="15.1332" x2="166.515" y2="15.1332" gradientUnits="userSpaceOnUse">
<stop stop-color="#FF7B22"/>
<stop offset="1" stop-color="#FF9940"/>
</linearGradient>
<linearGradient id="paint1_linear_48_513" x1="84.8616" y1="15.1332" x2="166.515" y2="15.1332" gradientUnits="userSpaceOnUse">
<stop stop-color="#FF7B22"/>
<stop offset="1" stop-color="#FF9940"/>
</linearGradient>
<linearGradient id="paint2_linear_48_513" x1="84.8616" y1="15.1332" x2="166.515" y2="15.1332" gradientUnits="userSpaceOnUse">
<stop stop-color="#FF7B22"/>
<stop offset="1" stop-color="#FF9940"/>
</linearGradient>
<linearGradient id="paint3_linear_48_513" x1="84.8616" y1="15.1332" x2="166.515" y2="15.1332" gradientUnits="userSpaceOnUse">
<stop stop-color="#FF7B22"/>
<stop offset="1" stop-color="#FF9940"/>
</linearGradient>
<linearGradient id="paint4_linear_48_513" x1="84.8616" y1="15.1332" x2="166.515" y2="15.1332" gradientUnits="userSpaceOnUse">
<stop stop-color="#FF7B22"/>
<stop offset="1" stop-color="#FF9940"/>
</linearGradient>
<linearGradient id="paint5_linear_48_513" x1="84.8616" y1="15.1332" x2="166.515" y2="15.1332" gradientUnits="userSpaceOnUse">
<stop stop-color="#FF7B22"/>
<stop offset="1" stop-color="#FF9940"/>
</linearGradient>
</defs>
</svg>
