<svg width="48" height="48" viewBox="0 0 48 48" fill="none" xmlns="http://www.w3.org/2000/svg">
<g id="Logo 2" clip-path="url(#clip0_115_5906)">
<g id="Artboard">
<path id="Oval" d="M24 48C37.2548 48 48 37.2548 48 24C48 10.7452 37.2548 0 24 0C10.7452 0 0 10.7452 0 24C0 37.2548 10.7452 48 24 48Z" fill="#002060"/>
</g>
<path id="VK_Compact_Logo 1 (Traced)" d="M14.1354 15.2327C14.1445 15.3604 14.167 15.7605 14.1854 16.1217C14.3257 18.8759 14.9051 21.3999 15.8504 23.3747C16.9107 25.5896 18.3451 27.1282 20.1211 27.9557C20.3628 28.0683 20.9927 28.2962 21.0623 28.2962C21.0807 28.2962 21.0917 25.7893 21.0917 21.6483V15.0004H23.5132H25.9347V18.7969C25.9347 21.1712 25.9458 22.5934 25.9643 22.5934C25.9807 22.5934 26.1422 22.5641 26.3232 22.5283C27.5479 22.2859 28.8611 21.4887 30.0453 20.2688C31.3189 18.9566 32.35 17.2215 32.919 15.4329L33.0515 15.0164L35.4649 15.0082L37.8783 15L37.8581 15.1564C37.7946 15.6474 37.436 16.8836 37.1526 17.5888C36.1729 20.0267 34.3757 22.3528 32.237 23.951C32.0556 24.0865 31.7728 24.2814 31.6086 24.3841L31.3101 24.5707L31.536 24.6856C33.5963 25.7338 35.651 27.622 37.0164 29.7219C37.5571 30.5536 38.1454 31.6991 38.4807 32.5733C38.6355 32.9767 38.9421 33.9091 38.9786 34.0871L39 34.1912H36.3478H33.6956L33.5309 33.7347C32.7811 31.6558 31.4587 29.8926 29.8058 28.7681C28.6707 27.9957 27.5238 27.5617 26.0675 27.3533L25.9347 27.3343V30.7671V34.2L24.9114 34.1816C23.8827 34.1631 23.3044 34.1193 22.4665 33.9965C17.2488 33.2317 13.3259 30.2577 11.1072 25.3849C10.0362 23.0326 9.35272 20.2126 9.11061 17.1469C9.06546 16.5752 9 15.378 9 15.1238V15.0004H11.5594H14.1188L14.1354 15.2327Z" fill="white"/>
</g>
<defs>
<clipPath id="clip0_115_5906">
<rect width="48" height="48" fill="white"/>
</clipPath>
</defs>
</svg>
