<svg width="44" height="44" viewBox="0 0 44 44" fill="none" xmlns="http://www.w3.org/2000/svg">
<g id="eva:menu-2-fill">
<path id="Vector" d="M7.33333 23.8333C8.34585 23.8333 9.16667 23.0125 9.16667 22C9.16667 20.9875 8.34585 20.1667 7.33333 20.1667C6.32081 20.1667 5.5 20.9875 5.5 22C5.5 23.0125 6.32081 23.8333 7.33333 23.8333Z" fill="#002060"/>
<path id="Vector_2" d="M36.7766 20.1667H14.5566C13.6048 20.1667 12.8333 20.9382 12.8333 21.89V22.11C12.8333 23.0618 13.6048 23.8333 14.5566 23.8333H36.7766C37.7284 23.8333 38.4999 23.0618 38.4999 22.11V21.89C38.4999 20.9382 37.7284 20.1667 36.7766 20.1667Z" fill="#002060"/>
<path id="Vector_3" d="M36.7767 29.3333H7.22333C6.27156 29.3333 5.5 30.1049 5.5 31.0567V31.2767C5.5 32.2284 6.27156 33 7.22333 33H36.7767C37.7284 33 38.5 32.2284 38.5 31.2767V31.0567C38.5 30.1049 37.7284 29.3333 36.7767 29.3333Z" fill="#002060"/>
<path id="Vector_4" d="M36.7767 11H7.22333C6.27156 11 5.5 11.7716 5.5 12.7233V12.9433C5.5 13.8951 6.27156 14.6667 7.22333 14.6667H36.7767C37.7284 14.6667 38.5 13.8951 38.5 12.9433V12.7233C38.5 11.7716 37.7284 11 36.7767 11Z" fill="#002060"/>
</g>
</svg>
